<svg xmlns="http://www.w3.org/2000/svg" xmlns:xlink="http://www.w3.org/1999/xlink" width="40" zoomAndPan="magnify" viewBox="0 0 30 30.000001" height="40" preserveAspectRatio="xMidYMid meet" version="1.0"><defs><clipPath id="id1"><path d="M 19 20 L 26 20 L 26 28.304688 L 19 28.304688 Z M 19 20 " clip-rule="nonzero"/></clipPath><clipPath id="id2"><path d="M 20 7 L 27.296875 7 L 27.296875 15 L 20 15 Z M 20 7 " clip-rule="nonzero"/></clipPath><clipPath id="id3"><path d="M 4.070312 18 L 15 18 L 15 28.304688 L 4.070312 28.304688 Z M 4.070312 18 " clip-rule="nonzero"/></clipPath></defs><g clip-path="url(#id1)"><path fill="rgb(54.899597%, 32.159424%, 100%)" d="M 22.28125 28.265625 C 21.089844 28.265625 20.023438 27.46875 19.488281 26.1875 L 19.394531 25.992188 C 19.3125 25.820312 19.386719 25.613281 19.5625 25.53125 C 19.738281 25.449219 19.945312 25.523438 20.027344 25.695312 L 20.125 25.898438 C 20.128906 25.90625 20.128906 25.910156 20.132812 25.917969 C 20.554688 26.9375 21.378906 27.570312 22.28125 27.570312 C 23.625 27.570312 24.714844 26.171875 24.714844 24.449219 C 24.714844 22.726562 23.625 21.324219 22.28125 21.324219 C 22.121094 21.324219 21.988281 21.453125 21.988281 21.613281 C 21.988281 21.773438 22.121094 21.90625 22.28125 21.90625 C 23.300781 21.90625 24.128906 23.046875 24.128906 24.449219 C 24.128906 25.851562 23.300781 26.992188 22.28125 26.992188 C 21.757812 26.992188 21.257812 26.679688 20.90625 26.136719 C 20.800781 25.976562 20.847656 25.761719 21.011719 25.65625 C 21.171875 25.554688 21.386719 25.601562 21.492188 25.761719 C 21.714844 26.101562 22 26.296875 22.28125 26.296875 C 22.894531 26.296875 23.429688 25.433594 23.429688 24.449219 C 23.429688 23.460938 22.894531 22.597656 22.28125 22.597656 C 21.734375 22.597656 21.289062 22.15625 21.289062 21.613281 C 21.289062 21.070312 21.734375 20.628906 22.28125 20.628906 C 24.011719 20.628906 25.414062 22.34375 25.414062 24.449219 C 25.414062 26.554688 24.011719 28.265625 22.28125 28.265625 Z M 22.28125 28.265625 " fill-opacity="1" fill-rule="nonzero"/></g><path fill="rgb(54.899597%, 32.159424%, 100%)" d="M 24.015625 12.855469 C 23.84375 12.855469 23.695312 12.730469 23.667969 12.558594 C 23.640625 12.371094 23.769531 12.195312 23.960938 12.164062 C 24.734375 12.046875 25.3125 11.375 25.3125 10.601562 C 25.3125 9.730469 24.597656 9.019531 23.71875 9.019531 C 22.839844 9.019531 22.121094 9.730469 22.121094 10.601562 C 22.121094 10.738281 22.140625 10.875 22.175781 11.003906 C 22.222656 11.191406 22.113281 11.378906 21.925781 11.429688 C 21.738281 11.476562 21.546875 11.367188 21.5 11.179688 C 21.449219 10.992188 21.421875 10.796875 21.421875 10.601562 C 21.421875 9.347656 22.453125 8.328125 23.71875 8.328125 C 24.984375 8.328125 26.011719 9.347656 26.011719 10.601562 C 26.011719 11.714844 25.175781 12.679688 24.070312 12.851562 C 24.050781 12.851562 24.03125 12.855469 24.015625 12.855469 Z M 24.015625 12.855469 " fill-opacity="1" fill-rule="nonzero"/><g clip-path="url(#id2)"><path fill="rgb(54.899597%, 32.159424%, 100%)" d="M 23.71875 14.152344 C 23.523438 14.152344 23.367188 13.996094 23.367188 13.804688 C 23.367188 13.613281 23.523438 13.457031 23.71875 13.457031 C 25.304688 13.457031 26.597656 12.175781 26.597656 10.601562 C 26.597656 9.027344 25.308594 7.746094 23.71875 7.746094 C 22.128906 7.746094 20.835938 9.027344 20.835938 10.601562 C 20.835938 10.925781 20.890625 11.246094 21 11.546875 L 21.125 11.816406 C 21.207031 11.992188 21.132812 12.199219 20.957031 12.277344 C 20.78125 12.359375 20.574219 12.285156 20.492188 12.109375 L 20.359375 11.824219 C 20.355469 11.816406 20.347656 11.804688 20.34375 11.796875 C 20.207031 11.414062 20.136719 11.011719 20.136719 10.601562 C 20.136719 8.644531 21.742188 7.050781 23.71875 7.050781 C 25.691406 7.050781 27.296875 8.644531 27.296875 10.601562 C 27.296875 12.558594 25.691406 14.152344 23.71875 14.152344 Z M 23.71875 14.152344 " fill-opacity="1" fill-rule="nonzero"/></g><path fill="rgb(54.899597%, 32.159424%, 100%)" d="M 24.015625 18.765625 C 23.921875 18.765625 23.828125 18.730469 23.757812 18.65625 C 23.625 18.515625 23.632812 18.296875 23.777344 18.167969 C 24.300781 17.683594 24.4375 16.910156 24.109375 16.28125 C 23.914062 15.90625 23.582031 15.628906 23.175781 15.5 C 22.769531 15.371094 22.335938 15.40625 21.960938 15.601562 C 21.582031 15.792969 21.300781 16.121094 21.171875 16.527344 C 21.042969 16.929688 21.078125 17.355469 21.273438 17.730469 C 21.335938 17.855469 21.414062 17.964844 21.507812 18.066406 C 21.636719 18.210938 21.625 18.429688 21.480469 18.554688 C 21.335938 18.683594 21.117188 18.671875 20.988281 18.53125 C 20.855469 18.386719 20.742188 18.222656 20.652344 18.050781 C 20.371094 17.511719 20.320312 16.894531 20.507812 16.316406 C 20.691406 15.734375 21.09375 15.265625 21.640625 14.984375 C 22.761719 14.410156 24.148438 14.847656 24.730469 15.964844 C 25.203125 16.867188 25.003906 17.980469 24.253906 18.675781 C 24.183594 18.734375 24.097656 18.765625 24.015625 18.765625 Z M 24.015625 18.765625 " fill-opacity="1" fill-rule="nonzero"/><path fill="rgb(54.899597%, 32.159424%, 100%)" d="M 24.355469 20.097656 C 24.234375 20.097656 24.121094 20.039062 24.054688 19.929688 C 23.957031 19.765625 24.007812 19.554688 24.175781 19.453125 C 25.472656 18.683594 25.945312 17.03125 25.25 15.695312 C 24.523438 14.296875 22.78125 13.746094 21.371094 14.46875 C 19.957031 15.191406 19.402344 16.917969 20.132812 18.316406 C 20.28125 18.605469 20.476562 18.863281 20.714844 19.082031 L 20.949219 19.265625 C 21.101562 19.382812 21.132812 19.601562 21.011719 19.753906 C 20.894531 19.902344 20.675781 19.929688 20.523438 19.8125 L 20.273438 19.621094 C 20.261719 19.617188 20.253906 19.609375 20.246094 19.601562 C 19.949219 19.324219 19.699219 19 19.507812 18.632812 C 18.605469 16.894531 19.292969 14.75 21.046875 13.851562 C 22.804688 12.953125 24.96875 13.640625 25.871094 15.378906 C 26.738281 17.039062 26.148438 19.089844 24.535156 20.050781 C 24.476562 20.082031 24.414062 20.097656 24.355469 20.097656 Z M 24.355469 20.097656 " fill-opacity="1" fill-rule="nonzero"/><g clip-path="url(#id3)"><path fill="rgb(54.899597%, 32.159424%, 100%)" d="M 9.203125 28.285156 C 9.125 28.285156 9.042969 28.257812 8.980469 28.203125 C 8.777344 28.039062 4.070312 24.109375 4.070312 21.386719 C 4.070312 19.738281 5.421875 18.398438 7.082031 18.398438 C 7.890625 18.398438 8.640625 18.710938 9.203125 19.265625 C 9.765625 18.710938 10.515625 18.398438 11.324219 18.398438 C 12.984375 18.398438 14.335938 19.738281 14.335938 21.386719 C 14.335938 24.109375 9.628906 28.039062 9.425781 28.203125 C 9.363281 28.257812 9.28125 28.285156 9.203125 28.285156 Z M 7.082031 19.09375 C 5.804688 19.09375 4.769531 20.121094 4.769531 21.386719 C 4.769531 23.273438 7.78125 26.257812 9.203125 27.480469 C 10.128906 26.675781 13.636719 23.480469 13.636719 21.386719 C 13.636719 20.121094 12.601562 19.09375 11.324219 19.09375 C 10.59375 19.09375 9.921875 19.421875 9.480469 20 C 9.414062 20.085938 9.3125 20.136719 9.203125 20.136719 C 9.09375 20.136719 8.992188 20.085938 8.925781 20 C 8.484375 19.421875 7.8125 19.09375 7.082031 19.09375 Z M 7.082031 19.09375 " fill-opacity="1" fill-rule="nonzero"/></g><path fill="rgb(32.939148%, 32.939148%, 32.939148%)" d="M 20.316406 9.5 C 19.613281 9.261719 18.839844 9.265625 18.210938 9.527344 C 17.4375 9.847656 16.808594 10.539062 16.527344 11.375 C 16.171875 12.417969 16.3125 13.949219 17.261719 14.851562 C 17.328125 14.917969 17.417969 14.949219 17.503906 14.949219 C 17.59375 14.949219 17.6875 14.914062 17.753906 14.84375 C 17.890625 14.703125 17.886719 14.484375 17.746094 14.351562 C 17.015625 13.65625 16.914062 12.414062 17.191406 11.597656 C 17.410156 10.945312 17.894531 10.414062 18.480469 10.167969 C 18.976562 9.960938 19.601562 9.96875 20.164062 10.183594 C 20.191406 9.949219 20.242188 9.71875 20.316406 9.5 Z M 20.316406 9.5 " fill-opacity="1" fill-rule="nonzero"/><path fill="rgb(32.939148%, 32.939148%, 32.939148%)" d="M 21.816406 7.597656 C 21.8125 7.59375 21.8125 7.59375 21.808594 7.59375 C 20.921875 7.40625 20.164062 6.988281 19.734375 6.445312 C 19.617188 6.296875 19.394531 6.269531 19.246094 6.386719 C 19.09375 6.507812 19.066406 6.722656 19.1875 6.875 C 19.625 7.429688 20.324219 7.875 21.144531 8.136719 C 21.347656 7.929688 21.570312 7.75 21.816406 7.597656 Z M 21.816406 7.597656 " fill-opacity="1" fill-rule="nonzero"/><path fill="rgb(32.939148%, 32.939148%, 32.939148%)" d="M 22.839844 24.734375 C 22.023438 25.414062 20.761719 25.640625 19.535156 25.324219 C 18.53125 25.066406 17.515625 24.464844 16.429688 23.492188 C 16.289062 23.363281 16.066406 23.375 15.9375 23.515625 C 15.808594 23.65625 15.820312 23.875 15.960938 24.003906 C 17.128906 25.054688 18.242188 25.707031 19.359375 25.996094 C 19.78125 26.105469 20.207031 26.15625 20.625 26.15625 C 21.636719 26.15625 22.59375 25.847656 23.289062 25.265625 C 23.4375 25.140625 23.457031 24.921875 23.332031 24.777344 C 23.207031 24.628906 22.988281 24.609375 22.839844 24.734375 Z M 22.839844 24.734375 " fill-opacity="1" fill-rule="nonzero"/><path fill="rgb(32.939148%, 32.939148%, 32.939148%)" d="M 23.988281 17.441406 C 23.851562 16.871094 23.765625 16.402344 23.710938 15.964844 C 23.6875 15.773438 23.515625 15.640625 23.324219 15.660156 C 23.132812 15.683594 22.992188 15.855469 23.015625 16.046875 C 23.074219 16.511719 23.167969 17.007812 23.308594 17.601562 C 23.378906 17.886719 23.453125 18.171875 23.523438 18.453125 C 23.777344 19.421875 24.035156 20.425781 24.070312 21.421875 C 24.078125 21.609375 24.230469 21.753906 24.417969 21.753906 C 24.425781 21.753906 24.429688 21.753906 24.433594 21.753906 C 24.625 21.746094 24.777344 21.585938 24.769531 21.394531 C 24.730469 20.328125 24.460938 19.285156 24.203125 18.28125 C 24.128906 18 24.058594 17.722656 23.988281 17.441406 Z M 23.988281 17.441406 " fill-opacity="1" fill-rule="nonzero"/><path fill="rgb(32.939148%, 32.939148%, 32.939148%)" d="M 24.941406 10.941406 C 24.78125 10.832031 24.566406 10.875 24.457031 11.035156 C 24 11.699219 23.53125 12.417969 23.253906 13.21875 C 23.191406 13.398438 23.285156 13.597656 23.46875 13.660156 C 23.507812 13.671875 23.546875 13.679688 23.582031 13.679688 C 23.726562 13.679688 23.863281 13.589844 23.914062 13.445312 C 24.164062 12.726562 24.585938 12.078125 25.035156 11.421875 C 25.144531 11.261719 25.101562 11.046875 24.941406 10.941406 Z M 24.941406 10.941406 " fill-opacity="1" fill-rule="nonzero"/><path fill="rgb(32.939148%, 32.939148%, 32.939148%)" d="M 26.648438 4.765625 C 26.53125 4.378906 26.378906 4.007812 26.199219 3.664062 C 25.429688 2.203125 24.132812 1.164062 22.441406 0.65625 C 20.355469 0.03125 17.921875 0.304688 15.925781 1.394531 C 13.617188 2.652344 11.8125 4.9375 10.972656 7.660156 C 10.914062 7.84375 11.019531 8.039062 11.203125 8.09375 C 11.390625 8.152344 11.585938 8.046875 11.640625 7.863281 C 12.429688 5.308594 14.113281 3.171875 16.261719 2 C 18.097656 1 20.332031 0.746094 22.238281 1.320312 C 23.746094 1.769531 24.898438 2.691406 25.578125 3.984375 C 25.738281 4.292969 25.875 4.621094 25.980469 4.964844 C 26.253906 5.859375 26.296875 6.828125 26.109375 7.761719 C 26.070312 7.949219 26.195312 8.132812 26.382812 8.171875 C 26.40625 8.175781 26.429688 8.175781 26.453125 8.175781 C 26.617188 8.175781 26.761719 8.0625 26.796875 7.898438 C 27.007812 6.851562 26.957031 5.769531 26.648438 4.765625 Z M 26.648438 4.765625 " fill-opacity="1" fill-rule="nonzero"/><path fill="rgb(32.939148%, 32.939148%, 32.939148%)" d="M 16.183594 18.460938 C 16.609375 19.25 17.046875 20.070312 18.152344 20.414062 C 18.441406 20.507812 18.742188 20.550781 19.039062 20.550781 C 19.71875 20.550781 20.390625 20.320312 20.914062 19.882812 C 21.441406 19.445312 21.753906 18.847656 21.773438 18.25 C 21.78125 17.941406 21.726562 17.640625 21.601562 17.332031 C 21.53125 17.152344 21.328125 17.066406 21.148438 17.136719 C 20.96875 17.207031 20.878906 17.410156 20.953125 17.585938 C 21.039062 17.808594 21.082031 18.015625 21.074219 18.230469 C 21.0625 18.625 20.835938 19.046875 20.464844 19.351562 C 19.894531 19.828125 19.089844 19.980469 18.363281 19.753906 C 17.53125 19.492188 17.207031 18.894531 16.800781 18.132812 C 16.71875 17.976562 16.632812 17.820312 16.539062 17.660156 C 15.632812 16.085938 15.03125 14.734375 14.652344 13.410156 C 14.605469 13.246094 14.558594 13.078125 14.519531 12.917969 C 14.101562 11.214844 14.089844 9.644531 14.484375 8.25 C 14.933594 6.664062 15.933594 5.355469 17.226562 4.652344 C 18.386719 4.023438 19.800781 3.941406 21.015625 4.433594 C 22.097656 4.871094 22.875 5.695312 23.203125 6.761719 C 23.257812 6.945312 23.453125 7.046875 23.636719 6.992188 C 23.824219 6.9375 23.925781 6.742188 23.871094 6.558594 C 23.480469 5.292969 22.558594 4.308594 21.28125 3.792969 C 19.875 3.222656 18.234375 3.316406 16.890625 4.042969 C 15.433594 4.835938 14.3125 6.300781 13.8125 8.0625 C 13.382812 9.574219 13.394531 11.261719 13.839844 13.082031 C 13.882812 13.253906 13.929688 13.425781 13.976562 13.597656 C 14.375 14.976562 14.996094 16.378906 15.933594 18.007812 C 16.023438 18.15625 16.101562 18.308594 16.183594 18.460938 Z M 16.183594 18.460938 " fill-opacity="1" fill-rule="nonzero"/><path fill="rgb(32.939148%, 32.939148%, 32.939148%)" d="M 19.824219 14.6875 C 19.839844 14.6875 19.851562 14.691406 19.867188 14.691406 C 20.042969 14.691406 20.191406 14.558594 20.214844 14.382812 C 20.285156 13.773438 20.660156 13.121094 21.328125 12.449219 C 21.523438 12.253906 21.734375 12.058594 21.933594 11.875 C 22.40625 11.4375 22.894531 10.988281 23.273438 10.4375 C 23.476562 10.144531 23.640625 9.828125 23.769531 9.492188 C 23.835938 9.3125 23.746094 9.113281 23.566406 9.046875 C 23.382812 8.976562 23.183594 9.070312 23.113281 9.25 C 23.007812 9.53125 22.867188 9.800781 22.695312 10.046875 C 22.363281 10.535156 21.925781 10.9375 21.460938 11.363281 C 21.25 11.558594 21.035156 11.757812 20.832031 11.960938 C 20.039062 12.761719 19.609375 13.527344 19.519531 14.304688 C 19.496094 14.492188 19.632812 14.664062 19.824219 14.6875 Z M 19.824219 14.6875 " fill-opacity="1" fill-rule="nonzero"/><path fill="rgb(32.939148%, 32.939148%, 32.939148%)" d="M 11.480469 20.953125 L 9.007812 23.472656 L 7.875 22.199219 C 7.746094 22.054688 7.523438 22.042969 7.378906 22.167969 C 7.234375 22.292969 7.222656 22.515625 7.347656 22.65625 L 8.730469 24.210938 C 8.796875 24.28125 8.886719 24.324219 8.984375 24.328125 C 8.988281 24.328125 8.992188 24.328125 8.992188 24.328125 C 9.089844 24.328125 9.179688 24.289062 9.246094 24.222656 L 11.980469 21.4375 C 12.117188 21.296875 12.113281 21.078125 11.976562 20.945312 C 11.835938 20.8125 11.617188 20.816406 11.480469 20.953125 Z M 11.480469 20.953125 " fill-opacity="1" fill-rule="nonzero"/></svg>