<svg xmlns="http://www.w3.org/2000/svg" xmlns:xlink="http://www.w3.org/1999/xlink" width="40" zoomAndPan="magnify" viewBox="0 0 30 30.000001" height="40" preserveAspectRatio="xMidYMid meet" version="1.0"><defs><clipPath id="id1"><path d="M 0.484375 2.902344 L 29.515625 2.902344 L 29.515625 27.582031 L 0.484375 27.582031 Z M 0.484375 2.902344 " clip-rule="nonzero"/></clipPath></defs><g clip-path="url(#id1)"><path fill="rgb(54.899597%, 32.159424%, 100%)" d="M 25.199219 2.917969 C 24.382812 2.917969 23.683594 3.464844 23.417969 4.214844 L 22.929688 4.214844 L 22.164062 3.433594 C 22.042969 3.304688 21.878906 3.238281 21.707031 3.238281 C 21.449219 3.238281 21.21875 3.398438 21.121094 3.640625 C 21.023438 3.886719 21.082031 4.164062 21.265625 4.351562 L 23.035156 6.160156 L 22.335938 6.878906 L 22.214844 6.753906 C 21.960938 6.492188 21.605469 6.453125 21.34375 6.507812 C 21.082031 6.566406 20.859375 6.695312 20.671875 6.890625 L 17.039062 10.605469 C 16.851562 10.796875 16.722656 11.027344 16.667969 11.292969 C 16.613281 11.5625 16.65625 11.925781 16.910156 12.1875 L 17.027344 12.3125 L 16.328125 13.027344 L 15.957031 12.648438 L 16.460938 12.132812 L 15.5625 11.214844 L 15.246094 11.539062 L 13.605469 9.863281 L 14.242188 9.214844 L 13.34375 8.296875 L 12.523438 9.136719 L 12.023438 8.621094 C 11.863281 8.453125 11.625 8.382812 11.40625 8.445312 C 11.183594 8.503906 11.011719 8.679688 10.953125 8.90625 C 10.894531 9.132812 10.960938 9.375 11.125 9.539062 L 11.628906 10.054688 L 10.808594 10.890625 L 11.707031 11.808594 L 12.339844 11.160156 L 13.976562 12.835938 L 13.792969 13.027344 L 13.421875 12.648438 C 13.175781 12.398438 12.851562 12.269531 12.523438 12.273438 C 12.199219 12.273438 11.875 12.398438 11.628906 12.648438 L 6.1875 18.214844 C 5.699219 18.71875 5.699219 19.550781 6.1875 20.050781 L 6.375 20.242188 L 3.019531 23.671875 L 3.335938 23.996094 L 1.75 25.621094 L 0.484375 27.566406 L 2.386719 26.269531 L 3.96875 24.644531 L 4.285156 24.96875 L 7.640625 21.539062 L 7.828125 21.726562 C 8.316406 22.230469 9.128906 22.230469 9.617188 21.726562 L 15.058594 16.160156 C 15.550781 15.65625 15.550781 14.828125 15.058594 14.324219 L 14.6875 13.945312 L 15.058594 13.566406 L 22.480469 21.15625 L 23.375 20.242188 C 23.125 19.980469 23.125 19.582031 23.375 19.324219 L 29.1875 13.375 C 29.441406 13.117188 29.832031 13.117188 30.085938 13.375 L 30.980469 12.457031 L 30.5 11.964844 C 30.703125 11.886719 30.855469 11.707031 30.898438 11.488281 C 30.945312 11.273438 30.875 11.046875 30.71875 10.890625 L 30.085938 10.242188 C 29.964844 10.117188 29.800781 10.046875 29.628906 10.046875 C 29.367188 10.046875 29.128906 10.214844 29.039062 10.46875 L 25.4375 6.789062 C 26.152344 6.691406 26.746094 6.191406 26.984375 5.511719 L 28.371094 5.511719 L 28.371094 4.214844 L 26.984375 4.214844 C 26.71875 3.464844 26.019531 2.917969 25.199219 2.917969 Z M 25.199219 4.214844 C 25.558594 4.214844 25.835938 4.5 25.835938 4.863281 C 25.835938 5.230469 25.558594 5.511719 25.199219 5.511719 C 24.84375 5.511719 24.566406 5.230469 24.566406 4.863281 C 24.566406 4.5 24.84375 4.214844 25.199219 4.214844 Z M 23.933594 7.078125 L 26.207031 9.40625 L 25.503906 10.121094 L 25.382812 9.996094 C 25.128906 9.738281 24.773438 9.695312 24.511719 9.75 C 24.25 9.808594 24.027344 9.9375 23.839844 10.132812 L 20.210938 13.847656 C 20.023438 14.042969 19.890625 14.269531 19.835938 14.539062 C 19.78125 14.804688 19.824219 15.167969 20.078125 15.429688 L 20.199219 15.554688 L 19.496094 16.269531 L 17.222656 13.945312 L 17.925781 13.226562 L 18.046875 13.347656 C 18.300781 13.609375 18.65625 13.652344 18.917969 13.597656 C 19.179688 13.542969 19.402344 13.40625 19.589844 13.214844 L 23.21875 9.5 C 23.40625 9.308594 23.539062 9.082031 23.59375 8.8125 C 23.648438 8.542969 23.605469 8.179688 23.355469 7.921875 L 23.230469 7.796875 Z M 21.507812 7.867188 L 22.265625 8.640625 L 18.753906 12.238281 L 17.992188 11.460938 Z M 27.101562 10.320312 L 28.421875 11.675781 L 21.714844 18.539062 L 20.394531 17.1875 L 21.09375 16.46875 L 21.214844 16.59375 C 21.46875 16.851562 21.828125 16.894531 22.089844 16.839844 C 22.347656 16.785156 22.570312 16.652344 22.757812 16.457031 L 26.390625 12.742188 C 26.578125 12.550781 26.707031 12.324219 26.761719 12.054688 C 26.816406 11.785156 26.773438 11.425781 26.523438 11.164062 L 26.402344 11.039062 Z M 24.679688 11.109375 L 25.4375 11.886719 L 21.921875 15.484375 L 21.164062 14.703125 Z M 12.523438 13.566406 L 14.164062 15.242188 L 8.722656 20.8125 L 7.082031 19.132812 Z M 12.523438 13.566406 " fill-opacity="1" fill-rule="nonzero"/></g></svg>